# xmcd CD database file
#
# Track frame offsets:
#	150
#	16865
#	28337
#	45252
#	59214
#	72970
#	89305
#	102408
#	117424
#	132182
#	148762
#	162363
#	177162
#
# Disc length: 2483 seconds
#
# Revision: 0
# Processed by: cddbd v1.4PL0 Copyright (c) Steve Scherf et al.
# Submitted via: CDex 1.51
#
DISCID=b809b10d
DTITLE=The Lee Blake Band - Leeway
DYEAR=1900
DGENRE=Blues
TTITLE0=Into The Mystic
TTITLE1=Dust My Broom
TTITLE2=Don't Let Nobody Turn You 'Round
TTITLE3=Down To The Ocean
TTITLE4=Weather Report
TTITLE5=I Ain't Superstitious
TTITLE6=Found Love
TTITLE7=Let's Go, Let's Go, Let's Go
TTITLE8=Leeway
TTITLE9=I Shall Be Released
TTITLE10=Up From The Skies
TTITLE11=I Ain't Gonna Let Nobody Steal My Jellyroll
TTITLE12=De Nile
EXTD=
EXTT0=
EXTT1=
EXTT2=
EXTT3=
EXTT4=
EXTT5=
EXTT6=
EXTT7=
EXTT8=
EXTT9=
EXTT10=
EXTT11=
EXTT12=
PLAYORDER=
